<?xml version="1.0" ?><!DOCTYPE svg  PUBLIC '-//W3C//DTD SVG 1.1//EN'  'http://www.w3.org/Graphics/SVG/1.1/DTD/svg11.dtd'><svg enable-background="new 0 0 512 512" height="512px" id="Layer_1" version="1.1" viewBox="0 0 512 512" width="512px" xml:space="preserve" xmlns="http://www.w3.org/2000/svg" xmlns:xlink="http://www.w3.org/1999/xlink" fill="#f8f8f8"><g><path d="M332.814,128.443c18.344-3.174,36.689-6.349,55.644-9.63c-3.584,18.716-7.116,37.157-10.763,56.203   c-3.383-3.377-6.688-6.333-9.561-9.667c-2.013-2.333-3.262-1.854-5.156,0.014c-11.943,11.787-23.961,23.5-35.968,35.225   c-21.427,20.927-42.893,41.818-64.249,62.818c-1.783,1.753-2.672,1.471-4.26-0.055c-8.962-8.601-18.065-17.057-26.999-25.686   c-1.742-1.679-2.663-1.808-4.456,0.002c-19.619,19.758-39.359,39.395-58.979,59.146c-1.789,1.81-2.733,2.113-4.661,0.125   c-5.69-5.871-11.6-11.533-17.511-17.187c-1.306-1.251-1.302-1.938-0.009-3.221c27.524-27.321,55.029-54.664,82.438-82.102   c1.946-1.946,2.805-0.747,4.012,0.394c8.873,8.386,17.778,16.743,26.56,25.225c1.445,1.399,2.092,1.29,3.475-0.046   c24.447-23.598,48.961-47.132,73.46-70.678c2.144-2.058,4.199-4.23,6.504-6.094c2.063-1.669,1.683-2.779-0.089-4.355   c-3.456-3.081-6.744-6.351-10.098-9.542C332.369,129.038,332.595,128.742,332.814,128.443z"/><rect height="66.678" width="68.539" x="141.113" y="315.244"/><rect height="98.111" width="68.542" x="229.854" y="283.811"/><rect height="140.924" width="68.541" x="318.274" y="241.075"/></g></svg>